<mxfile>
    <diagram id="2yf1pcEfcCGAt7DvKOW9" name="Code-Generation">
        <mxGraphModel dx="1330" dy="617" grid="1" gridSize="10" guides="1" tooltips="1" connect="1" arrows="1" fold="1" page="1" pageScale="1" pageWidth="850" pageHeight="1100" math="0" shadow="0">
            <root>
                <mxCell id="0"/>
                <mxCell id="1" parent="0"/>
                <mxCell id="2" value="GenerationCorodinator" style="swimlane;fontStyle=1;align=center;verticalAlign=top;childLayout=stackLayout;horizontal=1;startSize=26;horizontalStack=0;resizeParent=1;resizeParentMax=0;resizeLast=0;collapsible=1;marginBottom=0;" parent="1" vertex="1">
                    <mxGeometry x="90" y="230" width="270" height="190" as="geometry"/>
                </mxCell>
                <mxCell id="3" value="smart_conv_gen: JsonDataMapFuncGen()" style="text;strokeColor=none;fillColor=none;align=left;verticalAlign=top;spacingLeft=4;spacingRight=4;overflow=hidden;rotatable=0;points=[[0,0.5],[1,0.5]];portConstraint=eastwest;" parent="2" vertex="1">
                    <mxGeometry y="26" width="270" height="26" as="geometry"/>
                </mxCell>
                <mxCell id="27" value="cpp_generated_classes: CppTemplateClass" style="text;strokeColor=none;fillColor=none;align=left;verticalAlign=top;spacingLeft=4;spacingRight=4;overflow=hidden;rotatable=0;points=[[0,0.5],[1,0.5]];portConstraint=eastwest;" parent="2" vertex="1">
                    <mxGeometry y="52" width="270" height="26" as="geometry"/>
                </mxCell>
                <mxCell id="28" value="obj_cpp_json_path: CPPJSONPath()" style="text;strokeColor=none;fillColor=none;align=left;verticalAlign=top;spacingLeft=4;spacingRight=4;overflow=hidden;rotatable=0;points=[[0,0.5],[1,0.5]];portConstraint=eastwest;" parent="2" vertex="1">
                    <mxGeometry y="78" width="270" height="26" as="geometry"/>
                </mxCell>
                <mxCell id="31" value="render_plugin_cpp: CppClass" style="text;strokeColor=none;fillColor=none;align=left;verticalAlign=top;spacingLeft=4;spacingRight=4;overflow=hidden;rotatable=0;points=[[0,0.5],[1,0.5]];portConstraint=eastwest;" parent="2" vertex="1">
                    <mxGeometry y="104" width="270" height="26" as="geometry"/>
                </mxCell>
                <mxCell id="4" value="" style="line;strokeWidth=1;fillColor=none;align=left;verticalAlign=middle;spacingTop=-1;spacingLeft=3;spacingRight=3;rotatable=0;labelPosition=right;points=[];portConstraint=eastwest;" parent="2" vertex="1">
                    <mxGeometry y="130" width="270" height="8" as="geometry"/>
                </mxCell>
                <mxCell id="5" value="+ get_generaed_smart_converter()" style="text;strokeColor=none;fillColor=none;align=left;verticalAlign=top;spacingLeft=4;spacingRight=4;overflow=hidden;rotatable=0;points=[[0,0.5],[1,0.5]];portConstraint=eastwest;" parent="2" vertex="1">
                    <mxGeometry y="138" width="270" height="26" as="geometry"/>
                </mxCell>
                <mxCell id="29" value="+ render_and_generate_PFSP_smart_conv()" style="text;strokeColor=none;fillColor=none;align=left;verticalAlign=top;spacingLeft=4;spacingRight=4;overflow=hidden;rotatable=0;points=[[0,0.5],[1,0.5]];portConstraint=eastwest;" parent="2" vertex="1">
                    <mxGeometry y="164" width="270" height="26" as="geometry"/>
                </mxCell>
                <mxCell id="6" value="JsonDataMapFuncGen" style="swimlane;fontStyle=1;align=center;verticalAlign=top;childLayout=stackLayout;horizontal=1;startSize=26;horizontalStack=0;resizeParent=1;resizeParentMax=0;resizeLast=0;collapsible=1;marginBottom=0;" parent="1" vertex="1">
                    <mxGeometry x="580" y="130" width="280" height="190" as="geometry"/>
                </mxCell>
                <mxCell id="7" value="+ field: type" style="text;strokeColor=none;fillColor=none;align=left;verticalAlign=top;spacingLeft=4;spacingRight=4;overflow=hidden;rotatable=0;points=[[0,0.5],[1,0.5]];portConstraint=eastwest;" parent="6" vertex="1">
                    <mxGeometry y="26" width="280" height="26" as="geometry"/>
                </mxCell>
                <mxCell id="8" value="" style="line;strokeWidth=1;fillColor=none;align=left;verticalAlign=middle;spacingTop=-1;spacingLeft=3;spacingRight=3;rotatable=0;labelPosition=right;points=[];portConstraint=eastwest;" parent="6" vertex="1">
                    <mxGeometry y="52" width="280" height="8" as="geometry"/>
                </mxCell>
                <mxCell id="9" value="+get_unique_sources(func_list)" style="text;strokeColor=none;fillColor=none;align=left;verticalAlign=top;spacingLeft=4;spacingRight=4;overflow=hidden;rotatable=0;points=[[0,0.5],[1,0.5]];portConstraint=eastwest;" parent="6" vertex="1">
                    <mxGeometry y="60" width="280" height="26" as="geometry"/>
                </mxCell>
                <mxCell id="14" value="+get_func_declaration" style="text;strokeColor=none;fillColor=none;align=left;verticalAlign=top;spacingLeft=4;spacingRight=4;overflow=hidden;rotatable=0;points=[[0,0.5],[1,0.5]];portConstraint=eastwest;" parent="6" vertex="1">
                    <mxGeometry y="86" width="280" height="26" as="geometry"/>
                </mxCell>
                <mxCell id="15" value="+make_func_body(mapping_list, return_type)" style="text;strokeColor=none;fillColor=none;align=left;verticalAlign=top;spacingLeft=4;spacingRight=4;overflow=hidden;rotatable=0;points=[[0,0.5],[1,0.5]];portConstraint=eastwest;" parent="6" vertex="1">
                    <mxGeometry y="112" width="280" height="26" as="geometry"/>
                </mxCell>
                <mxCell id="16" value="+ get_function_from" style="text;strokeColor=none;fillColor=none;align=left;verticalAlign=top;spacingLeft=4;spacingRight=4;overflow=hidden;rotatable=0;points=[[0,0.5],[1,0.5]];portConstraint=eastwest;" parent="6" vertex="1">
                    <mxGeometry y="138" width="280" height="26" as="geometry"/>
                </mxCell>
                <mxCell id="32" value="+get_classes_from(json_path)" style="text;strokeColor=none;fillColor=none;align=left;verticalAlign=top;spacingLeft=4;spacingRight=4;overflow=hidden;rotatable=0;points=[[0,0.5],[1,0.5]];portConstraint=eastwest;" parent="6" vertex="1">
                    <mxGeometry y="164" width="280" height="26" as="geometry"/>
                </mxCell>
                <mxCell id="10" value="CppClass" style="swimlane;fontStyle=1;align=center;verticalAlign=top;childLayout=stackLayout;horizontal=1;startSize=26;horizontalStack=0;resizeParent=1;resizeParentMax=0;resizeLast=0;collapsible=1;marginBottom=0;" parent="1" vertex="1">
                    <mxGeometry x="590" y="420" width="250" height="86" as="geometry"/>
                </mxCell>
                <mxCell id="12" value="" style="line;strokeWidth=1;fillColor=none;align=left;verticalAlign=middle;spacingTop=-1;spacingLeft=3;spacingRight=3;rotatable=0;labelPosition=right;points=[];portConstraint=eastwest;" parent="10" vertex="1">
                    <mxGeometry y="26" width="250" height="8" as="geometry"/>
                </mxCell>
                <mxCell id="13" value="+ render_to_string_declaration" style="text;strokeColor=none;fillColor=none;align=left;verticalAlign=top;spacingLeft=4;spacingRight=4;overflow=hidden;rotatable=0;points=[[0,0.5],[1,0.5]];portConstraint=eastwest;" parent="10" vertex="1">
                    <mxGeometry y="34" width="250" height="26" as="geometry"/>
                </mxCell>
                <mxCell id="19" value="+ render_to_string_implementation" style="text;strokeColor=none;fillColor=none;align=left;verticalAlign=top;spacingLeft=4;spacingRight=4;overflow=hidden;rotatable=0;points=[[0,0.5],[1,0.5]];portConstraint=eastwest;" parent="10" vertex="1">
                    <mxGeometry y="60" width="250" height="26" as="geometry"/>
                </mxCell>
                <mxCell id="17" value="1" style="endArrow=open;html=1;endSize=12;startArrow=diamondThin;startSize=14;startFill=0;edgeStyle=orthogonalEdgeStyle;align=left;verticalAlign=bottom;entryX=0;entryY=0.5;entryDx=0;entryDy=0;" parent="1" target="14" edge="1">
                    <mxGeometry x="-1" y="3" relative="1" as="geometry">
                        <mxPoint x="370" y="300" as="sourcePoint"/>
                        <mxPoint x="580" y="290" as="targetPoint"/>
                        <Array as="points">
                            <mxPoint x="361" y="300"/>
                            <mxPoint x="480" y="300"/>
                            <mxPoint x="480" y="229"/>
                        </Array>
                    </mxGeometry>
                </mxCell>
                <mxCell id="18" value="1" style="endArrow=open;html=1;endSize=12;startArrow=diamondThin;startSize=14;startFill=0;edgeStyle=orthogonalEdgeStyle;align=left;verticalAlign=bottom;entryX=0;entryY=0.5;entryDx=0;entryDy=0;" parent="1" edge="1">
                    <mxGeometry x="-0.7953" relative="1" as="geometry">
                        <mxPoint x="370" y="300" as="sourcePoint"/>
                        <mxPoint x="590" y="459" as="targetPoint"/>
                        <Array as="points">
                            <mxPoint x="363" y="300"/>
                            <mxPoint x="480" y="300"/>
                            <mxPoint x="480" y="459"/>
                        </Array>
                        <mxPoint as="offset"/>
                    </mxGeometry>
                </mxCell>
                <mxCell id="20" value="CppTemplateClass" style="swimlane;fontStyle=1;align=center;verticalAlign=top;childLayout=stackLayout;horizontal=1;startSize=26;horizontalStack=0;resizeParent=1;resizeParentMax=0;resizeLast=0;collapsible=1;marginBottom=0;" parent="1" vertex="1">
                    <mxGeometry x="590" y="540" width="220" height="112" as="geometry"/>
                </mxCell>
                <mxCell id="21" value="- template_params_elements = []" style="text;strokeColor=none;fillColor=none;align=left;verticalAlign=top;spacingLeft=4;spacingRight=4;overflow=hidden;rotatable=0;points=[[0,0.5],[1,0.5]];portConstraint=eastwest;" parent="20" vertex="1">
                    <mxGeometry y="26" width="220" height="26" as="geometry"/>
                </mxCell>
                <mxCell id="22" value="" style="line;strokeWidth=1;fillColor=none;align=left;verticalAlign=middle;spacingTop=-1;spacingLeft=3;spacingRight=3;rotatable=0;labelPosition=right;points=[];portConstraint=eastwest;" parent="20" vertex="1">
                    <mxGeometry y="52" width="220" height="8" as="geometry"/>
                </mxCell>
                <mxCell id="23" value="+ add_template_params" style="text;strokeColor=none;fillColor=none;align=left;verticalAlign=top;spacingLeft=4;spacingRight=4;overflow=hidden;rotatable=0;points=[[0,0.5],[1,0.5]];portConstraint=eastwest;" parent="20" vertex="1">
                    <mxGeometry y="60" width="220" height="26" as="geometry"/>
                </mxCell>
                <mxCell id="24" value="+ render_to_string_declaration" style="text;strokeColor=none;fillColor=none;align=left;verticalAlign=top;spacingLeft=4;spacingRight=4;overflow=hidden;rotatable=0;points=[[0,0.5],[1,0.5]];portConstraint=eastwest;" parent="20" vertex="1">
                    <mxGeometry y="86" width="220" height="26" as="geometry"/>
                </mxCell>
                <mxCell id="26" value="1" style="endArrow=open;html=1;endSize=12;startArrow=diamondThin;startSize=14;startFill=0;edgeStyle=orthogonalEdgeStyle;align=left;verticalAlign=bottom;entryX=0.005;entryY=0.808;entryDx=0;entryDy=0;entryPerimeter=0;" parent="1" target="23" edge="1">
                    <mxGeometry x="-1" y="3" relative="1" as="geometry">
                        <mxPoint x="363" y="310" as="sourcePoint"/>
                        <mxPoint x="640" y="440" as="targetPoint"/>
                        <Array as="points">
                            <mxPoint x="363" y="300"/>
                            <mxPoint x="480" y="300"/>
                            <mxPoint x="480" y="621"/>
                        </Array>
                    </mxGeometry>
                </mxCell>
                <mxCell id="37" value="JsonGenClass" style="swimlane;fontStyle=0;childLayout=stackLayout;horizontal=1;startSize=26;fillColor=none;horizontalStack=0;resizeParent=1;resizeParentMax=0;resizeLast=0;collapsible=1;marginBottom=0;" parent="1" vertex="1">
                    <mxGeometry x="1020" y="90" width="140" height="156" as="geometry"/>
                </mxCell>
                <mxCell id="38" value="+ name: string" style="text;strokeColor=none;fillColor=none;align=left;verticalAlign=top;spacingLeft=4;spacingRight=4;overflow=hidden;rotatable=0;points=[[0,0.5],[1,0.5]];portConstraint=eastwest;" parent="37" vertex="1">
                    <mxGeometry y="26" width="140" height="26" as="geometry"/>
                </mxCell>
                <mxCell id="39" value="+ base_name: string" style="text;strokeColor=none;fillColor=none;align=left;verticalAlign=top;spacingLeft=4;spacingRight=4;overflow=hidden;rotatable=0;points=[[0,0.5],[1,0.5]];portConstraint=eastwest;" parent="37" vertex="1">
                    <mxGeometry y="52" width="140" height="26" as="geometry"/>
                </mxCell>
                <mxCell id="40" value="+ template_args: dict()" style="text;strokeColor=none;fillColor=none;align=left;verticalAlign=top;spacingLeft=4;spacingRight=4;overflow=hidden;rotatable=0;points=[[0,0.5],[1,0.5]];portConstraint=eastwest;" parent="37" vertex="1">
                    <mxGeometry y="78" width="140" height="26" as="geometry"/>
                </mxCell>
                <mxCell id="41" value="+ functions: []" style="text;strokeColor=none;fillColor=none;align=left;verticalAlign=top;spacingLeft=4;spacingRight=4;overflow=hidden;rotatable=0;points=[[0,0.5],[1,0.5]];portConstraint=eastwest;" parent="37" vertex="1">
                    <mxGeometry y="104" width="140" height="26" as="geometry"/>
                </mxCell>
                <mxCell id="42" value="+ includes: []" style="text;strokeColor=none;fillColor=none;align=left;verticalAlign=top;spacingLeft=4;spacingRight=4;overflow=hidden;rotatable=0;points=[[0,0.5],[1,0.5]];portConstraint=eastwest;" parent="37" vertex="1">
                    <mxGeometry y="130" width="140" height="26" as="geometry"/>
                </mxCell>
                <mxCell id="43" value="JsonGenFunction" style="swimlane;fontStyle=0;childLayout=stackLayout;horizontal=1;startSize=26;fillColor=none;horizontalStack=0;resizeParent=1;resizeParentMax=0;resizeLast=0;collapsible=1;marginBottom=0;" parent="1" vertex="1">
                    <mxGeometry x="1020" y="292" width="180" height="130" as="geometry"/>
                </mxCell>
                <mxCell id="44" value="+ name: string" style="text;strokeColor=none;fillColor=none;align=left;verticalAlign=top;spacingLeft=4;spacingRight=4;overflow=hidden;rotatable=0;points=[[0,0.5],[1,0.5]];portConstraint=eastwest;" parent="43" vertex="1">
                    <mxGeometry y="26" width="180" height="26" as="geometry"/>
                </mxCell>
                <mxCell id="45" value="+ body: string" style="text;strokeColor=none;fillColor=none;align=left;verticalAlign=top;spacingLeft=4;spacingRight=4;overflow=hidden;rotatable=0;points=[[0,0.5],[1,0.5]];portConstraint=eastwest;" parent="43" vertex="1">
                    <mxGeometry y="52" width="180" height="26" as="geometry"/>
                </mxCell>
                <mxCell id="46" value="+ args_types_param: dict()" style="text;strokeColor=none;fillColor=none;align=left;verticalAlign=top;spacingLeft=4;spacingRight=4;overflow=hidden;rotatable=0;points=[[0,0.5],[1,0.5]];portConstraint=eastwest;" parent="43" vertex="1">
                    <mxGeometry y="78" width="180" height="26" as="geometry"/>
                </mxCell>
                <mxCell id="47" value="+ return_type: string" style="text;strokeColor=none;fillColor=none;align=left;verticalAlign=top;spacingLeft=4;spacingRight=4;overflow=hidden;rotatable=0;points=[[0,0.5],[1,0.5]];portConstraint=eastwest;" parent="43" vertex="1">
                    <mxGeometry y="104" width="180" height="26" as="geometry"/>
                </mxCell>
                <mxCell id="48" value="1" style="endArrow=open;html=1;endSize=12;startArrow=diamondThin;startSize=14;startFill=1;edgeStyle=orthogonalEdgeStyle;align=left;verticalAlign=bottom;exitX=1;exitY=0.5;exitDx=0;exitDy=0;entryX=0;entryY=0.5;entryDx=0;entryDy=0;" parent="1" source="14" target="40" edge="1">
                    <mxGeometry x="-1" y="3" relative="1" as="geometry">
                        <mxPoint x="780" y="220" as="sourcePoint"/>
                        <mxPoint x="940" y="220" as="targetPoint"/>
                    </mxGeometry>
                </mxCell>
                <mxCell id="49" value="1" style="endArrow=open;html=1;endSize=12;startArrow=diamondThin;startSize=14;startFill=1;edgeStyle=orthogonalEdgeStyle;align=left;verticalAlign=bottom;exitX=1;exitY=0.5;exitDx=0;exitDy=0;entryX=0;entryY=0.5;entryDx=0;entryDy=0;" parent="1" source="14" target="45" edge="1">
                    <mxGeometry x="-1" y="3" relative="1" as="geometry">
                        <mxPoint x="780" y="220" as="sourcePoint"/>
                        <mxPoint x="940" y="220" as="targetPoint"/>
                    </mxGeometry>
                </mxCell>
                <mxCell id="50" value="YAML FIle with Mapping&amp;nbsp;" style="html=1;" parent="1" vertex="1">
                    <mxGeometry x="1340" y="30" width="260" height="310" as="geometry"/>
                </mxCell>
                <mxCell id="51" value="Use" style="endArrow=open;endSize=12;dashed=1;html=1;exitX=1;exitY=0.5;exitDx=0;exitDy=0;entryX=0;entryY=0.5;entryDx=0;entryDy=0;" parent="1" source="14" target="50" edge="1">
                    <mxGeometry width="160" relative="1" as="geometry">
                        <mxPoint x="890" y="170" as="sourcePoint"/>
                        <mxPoint x="1050" y="170" as="targetPoint"/>
                        <Array as="points">
                            <mxPoint x="940" y="229"/>
                            <mxPoint x="940" y="130"/>
                            <mxPoint x="940" y="50"/>
                            <mxPoint x="1250" y="50"/>
                            <mxPoint x="1250" y="185"/>
                        </Array>
                    </mxGeometry>
                </mxCell>
            </root>
        </mxGraphModel>
    </diagram>
    <diagram id="yWxkX-wdbepANTFsfoTq" name="cpp_generator">
        <mxGraphModel dx="2180" dy="1717" grid="1" gridSize="10" guides="1" tooltips="1" connect="1" arrows="1" fold="1" page="1" pageScale="1" pageWidth="850" pageHeight="1100" math="0" shadow="0">
            <root>
                <mxCell id="e3YcuIBK5Q66y4Pe-Yqy-0"/>
                <mxCell id="e3YcuIBK5Q66y4Pe-Yqy-1" parent="e3YcuIBK5Q66y4Pe-Yqy-0"/>
                <mxCell id="e3YcuIBK5Q66y4Pe-Yqy-2" value="CppLanguageElement" style="swimlane;fontStyle=1;align=center;verticalAlign=top;childLayout=stackLayout;horizontal=1;startSize=26;horizontalStack=0;resizeParent=1;resizeParentMax=0;resizeLast=0;collapsible=1;marginBottom=0;" parent="e3YcuIBK5Q66y4Pe-Yqy-1" vertex="1">
                    <mxGeometry x="70" y="270" width="520" height="164" as="geometry"/>
                </mxCell>
                <mxCell id="e3YcuIBK5Q66y4Pe-Yqy-3" value="+ availablePropertiesNames: {'name', 'ref_to_parent'}" style="text;strokeColor=none;fillColor=none;align=left;verticalAlign=top;spacingLeft=4;spacingRight=4;overflow=hidden;rotatable=0;points=[[0,0.5],[1,0.5]];portConstraint=eastwest;" parent="e3YcuIBK5Q66y4Pe-Yqy-2" vertex="1">
                    <mxGeometry y="26" width="520" height="26" as="geometry"/>
                </mxCell>
                <mxCell id="e3YcuIBK5Q66y4Pe-Yqy-4" value="" style="line;strokeWidth=1;fillColor=none;align=left;verticalAlign=middle;spacingTop=-1;spacingLeft=3;spacingRight=3;rotatable=0;labelPosition=right;points=[];portConstraint=eastwest;" parent="e3YcuIBK5Q66y4Pe-Yqy-2" vertex="1">
                    <mxGeometry y="52" width="520" height="8" as="geometry"/>
                </mxCell>
                <mxCell id="e3YcuIBK5Q66y4Pe-Yqy-5" value="+ check_input_properties_names(input_property_names)" style="text;strokeColor=none;fillColor=none;align=left;verticalAlign=top;spacingLeft=4;spacingRight=4;overflow=hidden;rotatable=0;points=[[0,0.5],[1,0.5]];portConstraint=eastwest;" parent="e3YcuIBK5Q66y4Pe-Yqy-2" vertex="1">
                    <mxGeometry y="60" width="520" height="26" as="geometry"/>
                </mxCell>
                <mxCell id="e3YcuIBK5Q66y4Pe-Yqy-6" value="+ init_class_properties(current_class_properties, input_properties_dict, default_property_value)" style="text;strokeColor=none;fillColor=none;align=left;verticalAlign=top;spacingLeft=4;spacingRight=4;overflow=hidden;rotatable=0;points=[[0,0.5],[1,0.5]];portConstraint=eastwest;" parent="e3YcuIBK5Q66y4Pe-Yqy-2" vertex="1">
                    <mxGeometry y="86" width="520" height="26" as="geometry"/>
                </mxCell>
                <mxCell id="e3YcuIBK5Q66y4Pe-Yqy-7" value="+ render_to_string(cpp)" style="text;strokeColor=none;fillColor=none;align=left;verticalAlign=top;spacingLeft=4;spacingRight=4;overflow=hidden;rotatable=0;points=[[0,0.5],[1,0.5]];portConstraint=eastwest;" parent="e3YcuIBK5Q66y4Pe-Yqy-2" vertex="1">
                    <mxGeometry y="112" width="520" height="26" as="geometry"/>
                </mxCell>
                <mxCell id="e3YcuIBK5Q66y4Pe-Yqy-8" value="+ parent_qualifier()" style="text;strokeColor=none;fillColor=none;align=left;verticalAlign=top;spacingLeft=4;spacingRight=4;overflow=hidden;rotatable=0;points=[[0,0.5],[1,0.5]];portConstraint=eastwest;" parent="e3YcuIBK5Q66y4Pe-Yqy-2" vertex="1">
                    <mxGeometry y="138" width="520" height="26" as="geometry"/>
                </mxCell>
                <mxCell id="e3YcuIBK5Q66y4Pe-Yqy-9" value="CppFunction" style="swimlane;fontStyle=1;align=center;verticalAlign=top;childLayout=stackLayout;horizontal=1;startSize=26;horizontalStack=0;resizeParent=1;resizeParentMax=0;resizeLast=0;collapsible=1;marginBottom=0;" parent="e3YcuIBK5Q66y4Pe-Yqy-1" vertex="1">
                    <mxGeometry x="870" y="170" width="310" height="418" as="geometry"/>
                </mxCell>
                <mxCell id="e3YcuIBK5Q66y4Pe-Yqy-10" value="+ availablePropertiesNames: {'ret_type', &#10;                                                'is_static&#10;                                                'is_const',&#10;                                                'is_virtual',&#10;                                                'is_pure_virtual',&#10;                                                'implementation_handle',&#10;                                                'documentation',&#10;                                                'is_method',&#10;                                                'is_template'}&#10;" style="text;strokeColor=none;fillColor=none;align=left;verticalAlign=top;spacingLeft=4;spacingRight=4;overflow=hidden;rotatable=0;points=[[0,0.5],[1,0.5]];portConstraint=eastwest;" parent="e3YcuIBK5Q66y4Pe-Yqy-9" vertex="1">
                    <mxGeometry y="26" width="310" height="154" as="geometry"/>
                </mxCell>
                <mxCell id="e3YcuIBK5Q66y4Pe-Yqy-11" value="" style="line;strokeWidth=1;fillColor=none;align=left;verticalAlign=middle;spacingTop=-1;spacingLeft=3;spacingRight=3;rotatable=0;labelPosition=right;points=[];portConstraint=eastwest;" parent="e3YcuIBK5Q66y4Pe-Yqy-9" vertex="1">
                    <mxGeometry y="180" width="310" height="8" as="geometry"/>
                </mxCell>
                <mxCell id="e3YcuIBK5Q66y4Pe-Yqy-12" value="- sanity_check(self)&#10;" style="text;strokeColor=none;fillColor=none;align=left;verticalAlign=top;spacingLeft=4;spacingRight=4;overflow=hidden;rotatable=0;points=[[0,0.5],[1,0.5]];portConstraint=eastwest;" parent="e3YcuIBK5Q66y4Pe-Yqy-9" vertex="1">
                    <mxGeometry y="188" width="310" height="22" as="geometry"/>
                </mxCell>
                <mxCell id="e3YcuIBK5Q66y4Pe-Yqy-13" value="- add_argument(argument): void" style="text;strokeColor=none;fillColor=none;align=left;verticalAlign=top;spacingLeft=4;spacingRight=4;overflow=hidden;rotatable=0;points=[[0,0.5],[1,0.5]];portConstraint=eastwest;" parent="e3YcuIBK5Q66y4Pe-Yqy-9" vertex="1">
                    <mxGeometry y="210" width="310" height="26" as="geometry"/>
                </mxCell>
                <mxCell id="e3YcuIBK5Q66y4Pe-Yqy-14" value="+ add_template(cpp_template): void" style="text;strokeColor=none;fillColor=none;align=left;verticalAlign=top;spacingLeft=4;spacingRight=4;overflow=hidden;rotatable=0;points=[[0,0.5],[1,0.5]];portConstraint=eastwest;" parent="e3YcuIBK5Q66y4Pe-Yqy-9" vertex="1">
                    <mxGeometry y="236" width="310" height="26" as="geometry"/>
                </mxCell>
                <mxCell id="e3YcuIBK5Q66y4Pe-Yqy-15" value="+ implementation(cpp): void" style="text;strokeColor=none;fillColor=none;align=left;verticalAlign=top;spacingLeft=4;spacingRight=4;overflow=hidden;rotatable=0;points=[[0,0.5],[1,0.5]];portConstraint=eastwest;" parent="e3YcuIBK5Q66y4Pe-Yqy-9" vertex="1">
                    <mxGeometry y="262" width="310" height="26" as="geometry"/>
                </mxCell>
                <mxCell id="e3YcuIBK5Q66y4Pe-Yqy-16" value="+ declaration(): void" style="text;strokeColor=none;fillColor=none;align=left;verticalAlign=top;spacingLeft=4;spacingRight=4;overflow=hidden;rotatable=0;points=[[0,0.5],[1,0.5]];portConstraint=eastwest;" parent="e3YcuIBK5Q66y4Pe-Yqy-9" vertex="1">
                    <mxGeometry y="288" width="310" height="26" as="geometry"/>
                </mxCell>
                <mxCell id="e3YcuIBK5Q66y4Pe-Yqy-17" value="+ definition(): void" style="text;strokeColor=none;fillColor=none;align=left;verticalAlign=top;spacingLeft=4;spacingRight=4;overflow=hidden;rotatable=0;points=[[0,0.5],[1,0.5]];portConstraint=eastwest;" parent="e3YcuIBK5Q66y4Pe-Yqy-9" vertex="1">
                    <mxGeometry y="314" width="310" height="26" as="geometry"/>
                </mxCell>
                <mxCell id="e3YcuIBK5Q66y4Pe-Yqy-18" value="+ render_to_string(cpp): void" style="text;strokeColor=none;fillColor=none;align=left;verticalAlign=top;spacingLeft=4;spacingRight=4;overflow=hidden;rotatable=0;points=[[0,0.5],[1,0.5]];portConstraint=eastwest;" parent="e3YcuIBK5Q66y4Pe-Yqy-9" vertex="1">
                    <mxGeometry y="340" width="310" height="26" as="geometry"/>
                </mxCell>
                <mxCell id="e3YcuIBK5Q66y4Pe-Yqy-19" value="+ render_to_string_declaration(cpp): void" style="text;strokeColor=none;fillColor=none;align=left;verticalAlign=top;spacingLeft=4;spacingRight=4;overflow=hidden;rotatable=0;points=[[0,0.5],[1,0.5]];portConstraint=eastwest;" parent="e3YcuIBK5Q66y4Pe-Yqy-9" vertex="1">
                    <mxGeometry y="366" width="310" height="26" as="geometry"/>
                </mxCell>
                <mxCell id="e3YcuIBK5Q66y4Pe-Yqy-20" value="+ render_to_string_implementation(cpp): void" style="text;strokeColor=none;fillColor=none;align=left;verticalAlign=top;spacingLeft=4;spacingRight=4;overflow=hidden;rotatable=0;points=[[0,0.5],[1,0.5]];portConstraint=eastwest;" parent="e3YcuIBK5Q66y4Pe-Yqy-9" vertex="1">
                    <mxGeometry y="392" width="310" height="26" as="geometry"/>
                </mxCell>
                <mxCell id="e3YcuIBK5Q66y4Pe-Yqy-21" value="CppEnum" style="swimlane;fontStyle=1;align=center;verticalAlign=top;childLayout=stackLayout;horizontal=1;startSize=26;horizontalStack=0;resizeParent=1;resizeParentMax=0;resizeLast=0;collapsible=1;marginBottom=0;" parent="e3YcuIBK5Q66y4Pe-Yqy-1" vertex="1">
                    <mxGeometry x="880" y="640" width="310" height="146" as="geometry"/>
                </mxCell>
                <mxCell id="e3YcuIBK5Q66y4Pe-Yqy-22" value="+ availablePropertiesNames: {'enum_items'}&#10;" style="text;strokeColor=none;fillColor=none;align=left;verticalAlign=top;spacingLeft=4;spacingRight=4;overflow=hidden;rotatable=0;points=[[0,0.5],[1,0.5]];portConstraint=eastwest;" parent="e3YcuIBK5Q66y4Pe-Yqy-21" vertex="1">
                    <mxGeometry y="26" width="310" height="34" as="geometry"/>
                </mxCell>
                <mxCell id="e3YcuIBK5Q66y4Pe-Yqy-23" value="" style="line;strokeWidth=1;fillColor=none;align=left;verticalAlign=middle;spacingTop=-1;spacingLeft=3;spacingRight=3;rotatable=0;labelPosition=right;points=[];portConstraint=eastwest;" parent="e3YcuIBK5Q66y4Pe-Yqy-21" vertex="1">
                    <mxGeometry y="60" width="310" height="8" as="geometry"/>
                </mxCell>
                <mxCell id="e3YcuIBK5Q66y4Pe-Yqy-26" value="+ add_item(item): void" style="text;strokeColor=none;fillColor=none;align=left;verticalAlign=top;spacingLeft=4;spacingRight=4;overflow=hidden;rotatable=0;points=[[0,0.5],[1,0.5]];portConstraint=eastwest;" parent="e3YcuIBK5Q66y4Pe-Yqy-21" vertex="1">
                    <mxGeometry y="68" width="310" height="26" as="geometry"/>
                </mxCell>
                <mxCell id="e3YcuIBK5Q66y4Pe-Yqy-27" value="+ add_items(items): void" style="text;strokeColor=none;fillColor=none;align=left;verticalAlign=top;spacingLeft=4;spacingRight=4;overflow=hidden;rotatable=0;points=[[0,0.5],[1,0.5]];portConstraint=eastwest;" parent="e3YcuIBK5Q66y4Pe-Yqy-21" vertex="1">
                    <mxGeometry y="94" width="310" height="26" as="geometry"/>
                </mxCell>
                <mxCell id="e3YcuIBK5Q66y4Pe-Yqy-28" value="+ render_to_string(cpp): void" style="text;strokeColor=none;fillColor=none;align=left;verticalAlign=top;spacingLeft=4;spacingRight=4;overflow=hidden;rotatable=0;points=[[0,0.5],[1,0.5]];portConstraint=eastwest;" parent="e3YcuIBK5Q66y4Pe-Yqy-21" vertex="1">
                    <mxGeometry y="120" width="310" height="26" as="geometry"/>
                </mxCell>
                <mxCell id="e3YcuIBK5Q66y4Pe-Yqy-33" value="CppVariable" style="swimlane;fontStyle=1;align=center;verticalAlign=top;childLayout=stackLayout;horizontal=1;startSize=26;horizontalStack=0;resizeParent=1;resizeParentMax=0;resizeLast=0;collapsible=1;marginBottom=0;" parent="e3YcuIBK5Q66y4Pe-Yqy-1" vertex="1">
                    <mxGeometry x="880" y="820" width="310" height="268" as="geometry"/>
                </mxCell>
                <mxCell id="e3YcuIBK5Q66y4Pe-Yqy-34" value="+ availablePropertiesNames: {'type', &#10;                                                'is_static&#10;                                                'is_const',&#10;                                                'initialization_valuel',&#10;                                                'documentation',&#10;                                                'is_class_member'}&#10;" style="text;strokeColor=none;fillColor=none;align=left;verticalAlign=top;spacingLeft=4;spacingRight=4;overflow=hidden;rotatable=0;points=[[0,0.5],[1,0.5]];portConstraint=eastwest;" parent="e3YcuIBK5Q66y4Pe-Yqy-33" vertex="1">
                    <mxGeometry y="26" width="310" height="104" as="geometry"/>
                </mxCell>
                <mxCell id="e3YcuIBK5Q66y4Pe-Yqy-35" value="" style="line;strokeWidth=1;fillColor=none;align=left;verticalAlign=middle;spacingTop=-1;spacingLeft=3;spacingRight=3;rotatable=0;labelPosition=right;points=[];portConstraint=eastwest;" parent="e3YcuIBK5Q66y4Pe-Yqy-33" vertex="1">
                    <mxGeometry y="130" width="310" height="8" as="geometry"/>
                </mxCell>
                <mxCell id="e3YcuIBK5Q66y4Pe-Yqy-36" value="+ declaration(item): void" style="text;strokeColor=none;fillColor=none;align=left;verticalAlign=top;spacingLeft=4;spacingRight=4;overflow=hidden;rotatable=0;points=[[0,0.5],[1,0.5]];portConstraint=eastwest;" parent="e3YcuIBK5Q66y4Pe-Yqy-33" vertex="1">
                    <mxGeometry y="138" width="310" height="26" as="geometry"/>
                </mxCell>
                <mxCell id="e3YcuIBK5Q66y4Pe-Yqy-37" value="+ defniition(items): void" style="text;strokeColor=none;fillColor=none;align=left;verticalAlign=top;spacingLeft=4;spacingRight=4;overflow=hidden;rotatable=0;points=[[0,0.5],[1,0.5]];portConstraint=eastwest;" parent="e3YcuIBK5Q66y4Pe-Yqy-33" vertex="1">
                    <mxGeometry y="164" width="310" height="26" as="geometry"/>
                </mxCell>
                <mxCell id="e3YcuIBK5Q66y4Pe-Yqy-38" value="+ render_to_string(cpp): void" style="text;strokeColor=none;fillColor=none;align=left;verticalAlign=top;spacingLeft=4;spacingRight=4;overflow=hidden;rotatable=0;points=[[0,0.5],[1,0.5]];portConstraint=eastwest;" parent="e3YcuIBK5Q66y4Pe-Yqy-33" vertex="1">
                    <mxGeometry y="190" width="310" height="26" as="geometry"/>
                </mxCell>
                <mxCell id="e3YcuIBK5Q66y4Pe-Yqy-39" value="+ render_to_string_declaration(cpp): void" style="text;strokeColor=none;fillColor=none;align=left;verticalAlign=top;spacingLeft=4;spacingRight=4;overflow=hidden;rotatable=0;points=[[0,0.5],[1,0.5]];portConstraint=eastwest;" parent="e3YcuIBK5Q66y4Pe-Yqy-33" vertex="1">
                    <mxGeometry y="216" width="310" height="26" as="geometry"/>
                </mxCell>
                <mxCell id="e3YcuIBK5Q66y4Pe-Yqy-40" value="+ render_to_string_implementation(cpp): void" style="text;strokeColor=none;fillColor=none;align=left;verticalAlign=top;spacingLeft=4;spacingRight=4;overflow=hidden;rotatable=0;points=[[0,0.5],[1,0.5]];portConstraint=eastwest;" parent="e3YcuIBK5Q66y4Pe-Yqy-33" vertex="1">
                    <mxGeometry y="242" width="310" height="26" as="geometry"/>
                </mxCell>
                <mxCell id="e3YcuIBK5Q66y4Pe-Yqy-41" value="CppArray" style="swimlane;fontStyle=1;align=center;verticalAlign=top;childLayout=stackLayout;horizontal=1;startSize=26;horizontalStack=0;resizeParent=1;resizeParentMax=0;resizeLast=0;collapsible=1;marginBottom=0;" parent="e3YcuIBK5Q66y4Pe-Yqy-1" vertex="1">
                    <mxGeometry x="870" y="-220" width="310" height="346" as="geometry"/>
                </mxCell>
                <mxCell id="e3YcuIBK5Q66y4Pe-Yqy-42" value="+ availablePropertiesNames: {'type', &#10;                                                'is_static&#10;                                                'is_const',&#10;                                                'arraySize',&#10;                                                'is_class_member',&#10;                                                'newline_align',}&#10;" style="text;strokeColor=none;fillColor=none;align=left;verticalAlign=top;spacingLeft=4;spacingRight=4;overflow=hidden;rotatable=0;points=[[0,0.5],[1,0.5]];portConstraint=eastwest;" parent="e3YcuIBK5Q66y4Pe-Yqy-41" vertex="1">
                    <mxGeometry y="26" width="310" height="104" as="geometry"/>
                </mxCell>
                <mxCell id="e3YcuIBK5Q66y4Pe-Yqy-43" value="" style="line;strokeWidth=1;fillColor=none;align=left;verticalAlign=middle;spacingTop=-1;spacingLeft=3;spacingRight=3;rotatable=0;labelPosition=right;points=[];portConstraint=eastwest;" parent="e3YcuIBK5Q66y4Pe-Yqy-41" vertex="1">
                    <mxGeometry y="130" width="310" height="8" as="geometry"/>
                </mxCell>
                <mxCell id="e3YcuIBK5Q66y4Pe-Yqy-47" value="+ implementation(cpp): void" style="text;strokeColor=none;fillColor=none;align=left;verticalAlign=top;spacingLeft=4;spacingRight=4;overflow=hidden;rotatable=0;points=[[0,0.5],[1,0.5]];portConstraint=eastwest;" parent="e3YcuIBK5Q66y4Pe-Yqy-41" vertex="1">
                    <mxGeometry y="138" width="310" height="26" as="geometry"/>
                </mxCell>
                <mxCell id="e3YcuIBK5Q66y4Pe-Yqy-48" value="+ declaration(): void" style="text;strokeColor=none;fillColor=none;align=left;verticalAlign=top;spacingLeft=4;spacingRight=4;overflow=hidden;rotatable=0;points=[[0,0.5],[1,0.5]];portConstraint=eastwest;" parent="e3YcuIBK5Q66y4Pe-Yqy-41" vertex="1">
                    <mxGeometry y="164" width="310" height="26" as="geometry"/>
                </mxCell>
                <mxCell id="e3YcuIBK5Q66y4Pe-Yqy-49" value="+ definition(): void" style="text;strokeColor=none;fillColor=none;align=left;verticalAlign=top;spacingLeft=4;spacingRight=4;overflow=hidden;rotatable=0;points=[[0,0.5],[1,0.5]];portConstraint=eastwest;" parent="e3YcuIBK5Q66y4Pe-Yqy-41" vertex="1">
                    <mxGeometry y="190" width="310" height="26" as="geometry"/>
                </mxCell>
                <mxCell id="e3YcuIBK5Q66y4Pe-Yqy-53" value="+ add_array_item(item): void" style="text;strokeColor=none;fillColor=none;align=left;verticalAlign=top;spacingLeft=4;spacingRight=4;overflow=hidden;rotatable=0;points=[[0,0.5],[1,0.5]];portConstraint=eastwest;" parent="e3YcuIBK5Q66y4Pe-Yqy-41" vertex="1">
                    <mxGeometry y="216" width="310" height="26" as="geometry"/>
                </mxCell>
                <mxCell id="e3YcuIBK5Q66y4Pe-Yqy-54" value="+ add_array_items(items): void" style="text;strokeColor=none;fillColor=none;align=left;verticalAlign=top;spacingLeft=4;spacingRight=4;overflow=hidden;rotatable=0;points=[[0,0.5],[1,0.5]];portConstraint=eastwest;" parent="e3YcuIBK5Q66y4Pe-Yqy-41" vertex="1">
                    <mxGeometry y="242" width="310" height="26" as="geometry"/>
                </mxCell>
                <mxCell id="e3YcuIBK5Q66y4Pe-Yqy-50" value="+ render_to_string(cpp): void" style="text;strokeColor=none;fillColor=none;align=left;verticalAlign=top;spacingLeft=4;spacingRight=4;overflow=hidden;rotatable=0;points=[[0,0.5],[1,0.5]];portConstraint=eastwest;" parent="e3YcuIBK5Q66y4Pe-Yqy-41" vertex="1">
                    <mxGeometry y="268" width="310" height="26" as="geometry"/>
                </mxCell>
                <mxCell id="e3YcuIBK5Q66y4Pe-Yqy-51" value="+ render_to_string_declaration(cpp): void" style="text;strokeColor=none;fillColor=none;align=left;verticalAlign=top;spacingLeft=4;spacingRight=4;overflow=hidden;rotatable=0;points=[[0,0.5],[1,0.5]];portConstraint=eastwest;" parent="e3YcuIBK5Q66y4Pe-Yqy-41" vertex="1">
                    <mxGeometry y="294" width="310" height="26" as="geometry"/>
                </mxCell>
                <mxCell id="e3YcuIBK5Q66y4Pe-Yqy-52" value="+ render_to_string_implementation(cpp): void" style="text;strokeColor=none;fillColor=none;align=left;verticalAlign=top;spacingLeft=4;spacingRight=4;overflow=hidden;rotatable=0;points=[[0,0.5],[1,0.5]];portConstraint=eastwest;" parent="e3YcuIBK5Q66y4Pe-Yqy-41" vertex="1">
                    <mxGeometry y="320" width="310" height="26" as="geometry"/>
                </mxCell>
                <mxCell id="e3YcuIBK5Q66y4Pe-Yqy-55" value="CppClass" style="swimlane;fontStyle=1;align=center;verticalAlign=top;childLayout=stackLayout;horizontal=1;startSize=26;horizontalStack=0;resizeParent=1;resizeParentMax=0;resizeLast=0;collapsible=1;marginBottom=0;" parent="e3YcuIBK5Q66y4Pe-Yqy-1" vertex="1">
                    <mxGeometry x="190" y="-780" width="310" height="866" as="geometry"/>
                </mxCell>
                <mxCell id="e3YcuIBK5Q66y4Pe-Yqy-67" value="+ internal_class_elements = []" style="text;strokeColor=none;fillColor=none;align=left;verticalAlign=top;spacingLeft=4;spacingRight=4;overflow=hidden;rotatable=0;points=[[0,0.5],[1,0.5]];portConstraint=eastwest;" parent="e3YcuIBK5Q66y4Pe-Yqy-55" vertex="1">
                    <mxGeometry y="26" width="310" height="26" as="geometry"/>
                </mxCell>
                <mxCell id="e3YcuIBK5Q66y4Pe-Yqy-68" value="+ internal_variable_elements = []" style="text;strokeColor=none;fillColor=none;align=left;verticalAlign=top;spacingLeft=4;spacingRight=4;overflow=hidden;rotatable=0;points=[[0,0.5],[1,0.5]];portConstraint=eastwest;" parent="e3YcuIBK5Q66y4Pe-Yqy-55" vertex="1">
                    <mxGeometry y="52" width="310" height="26" as="geometry"/>
                </mxCell>
                <mxCell id="e3YcuIBK5Q66y4Pe-Yqy-69" value="+ internal_array_elements = []" style="text;strokeColor=none;fillColor=none;align=left;verticalAlign=top;spacingLeft=4;spacingRight=4;overflow=hidden;rotatable=0;points=[[0,0.5],[1,0.5]];portConstraint=eastwest;" parent="e3YcuIBK5Q66y4Pe-Yqy-55" vertex="1">
                    <mxGeometry y="78" width="310" height="26" as="geometry"/>
                </mxCell>
                <mxCell id="e3YcuIBK5Q66y4Pe-Yqy-70" value="+ internal_enum_elements = []" style="text;strokeColor=none;fillColor=none;align=left;verticalAlign=top;spacingLeft=4;spacingRight=4;overflow=hidden;rotatable=0;points=[[0,0.5],[1,0.5]];portConstraint=eastwest;" parent="e3YcuIBK5Q66y4Pe-Yqy-55" vertex="1">
                    <mxGeometry y="104" width="310" height="26" as="geometry"/>
                </mxCell>
                <mxCell id="e3YcuIBK5Q66y4Pe-Yqy-72" value="+ internal_template_elements = []" style="text;strokeColor=none;fillColor=none;align=left;verticalAlign=top;spacingLeft=4;spacingRight=4;overflow=hidden;rotatable=0;points=[[0,0.5],[1,0.5]];portConstraint=eastwest;" parent="e3YcuIBK5Q66y4Pe-Yqy-55" vertex="1">
                    <mxGeometry y="130" width="310" height="26" as="geometry"/>
                </mxCell>
                <mxCell id="e3YcuIBK5Q66y4Pe-Yqy-73" value="+ internal_includes = []" style="text;strokeColor=none;fillColor=none;align=left;verticalAlign=top;spacingLeft=4;spacingRight=4;overflow=hidden;rotatable=0;points=[[0,0.5],[1,0.5]];portConstraint=eastwest;" parent="e3YcuIBK5Q66y4Pe-Yqy-55" vertex="1">
                    <mxGeometry y="156" width="310" height="26" as="geometry"/>
                </mxCell>
                <mxCell id="e3YcuIBK5Q66y4Pe-Yqy-56" value="+ availablePropertiesNames: {'is_struct',                                                 &#10;                                                'documentation',&#10;                                                'parent_class',&#10;                                                'is_template'}&#10;" style="text;strokeColor=none;fillColor=none;align=left;verticalAlign=top;spacingLeft=4;spacingRight=4;overflow=hidden;rotatable=0;points=[[0,0.5],[1,0.5]];portConstraint=eastwest;" parent="e3YcuIBK5Q66y4Pe-Yqy-55" vertex="1">
                    <mxGeometry y="182" width="310" height="78" as="geometry"/>
                </mxCell>
                <mxCell id="e3YcuIBK5Q66y4Pe-Yqy-57" value="" style="line;strokeWidth=1;fillColor=none;align=left;verticalAlign=middle;spacingTop=-1;spacingLeft=3;spacingRight=3;rotatable=0;labelPosition=right;points=[];portConstraint=eastwest;" parent="e3YcuIBK5Q66y4Pe-Yqy-55" vertex="1">
                    <mxGeometry y="260" width="310" height="8" as="geometry"/>
                </mxCell>
                <mxCell id="e3YcuIBK5Q66y4Pe-Yqy-74" value="+ add_enum(enum): void" style="text;strokeColor=none;fillColor=none;align=left;verticalAlign=top;spacingLeft=4;spacingRight=4;overflow=hidden;rotatable=0;points=[[0,0.5],[1,0.5]];portConstraint=eastwest;" parent="e3YcuIBK5Q66y4Pe-Yqy-55" vertex="1">
                    <mxGeometry y="268" width="310" height="26" as="geometry"/>
                </mxCell>
                <mxCell id="e3YcuIBK5Q66y4Pe-Yqy-75" value="+ add_variable(cpp_variable): void" style="text;strokeColor=none;fillColor=none;align=left;verticalAlign=top;spacingLeft=4;spacingRight=4;overflow=hidden;rotatable=0;points=[[0,0.5],[1,0.5]];portConstraint=eastwest;" parent="e3YcuIBK5Q66y4Pe-Yqy-55" vertex="1">
                    <mxGeometry y="294" width="310" height="26" as="geometry"/>
                </mxCell>
                <mxCell id="e3YcuIBK5Q66y4Pe-Yqy-60" value="+ add_template(cpp_template): void" style="text;strokeColor=none;fillColor=none;align=left;verticalAlign=top;spacingLeft=4;spacingRight=4;overflow=hidden;rotatable=0;points=[[0,0.5],[1,0.5]];portConstraint=eastwest;" parent="e3YcuIBK5Q66y4Pe-Yqy-55" vertex="1">
                    <mxGeometry y="320" width="310" height="26" as="geometry"/>
                </mxCell>
                <mxCell id="e3YcuIBK5Q66y4Pe-Yqy-76" value="+ add_array(cpp_variable): void" style="text;strokeColor=none;fillColor=none;align=left;verticalAlign=top;spacingLeft=4;spacingRight=4;overflow=hidden;rotatable=0;points=[[0,0.5],[1,0.5]];portConstraint=eastwest;" parent="e3YcuIBK5Q66y4Pe-Yqy-55" vertex="1">
                    <mxGeometry y="346" width="310" height="26" as="geometry"/>
                </mxCell>
                <mxCell id="e3YcuIBK5Q66y4Pe-Yqy-77" value="+ add_includes(cpp_include): void" style="text;strokeColor=none;fillColor=none;align=left;verticalAlign=top;spacingLeft=4;spacingRight=4;overflow=hidden;rotatable=0;points=[[0,0.5],[1,0.5]];portConstraint=eastwest;" parent="e3YcuIBK5Q66y4Pe-Yqy-55" vertex="1">
                    <mxGeometry y="372" width="310" height="26" as="geometry"/>
                </mxCell>
                <mxCell id="e3YcuIBK5Q66y4Pe-Yqy-78" value="+ add_internal_class(cpp_class): void" style="text;strokeColor=none;fillColor=none;align=left;verticalAlign=top;spacingLeft=4;spacingRight=4;overflow=hidden;rotatable=0;points=[[0,0.5],[1,0.5]];portConstraint=eastwest;" parent="e3YcuIBK5Q66y4Pe-Yqy-55" vertex="1">
                    <mxGeometry y="398" width="310" height="26" as="geometry"/>
                </mxCell>
                <mxCell id="e3YcuIBK5Q66y4Pe-Yqy-79" value="+ add_method(method): void" style="text;strokeColor=none;fillColor=none;align=left;verticalAlign=top;spacingLeft=4;spacingRight=4;overflow=hidden;rotatable=0;points=[[0,0.5],[1,0.5]];portConstraint=eastwest;" parent="e3YcuIBK5Q66y4Pe-Yqy-55" vertex="1">
                    <mxGeometry y="424" width="310" height="26" as="geometry"/>
                </mxCell>
                <mxCell id="e3YcuIBK5Q66y4Pe-Yqy-61" value="+ implementation(cpp): void" style="text;strokeColor=none;fillColor=none;align=left;verticalAlign=top;spacingLeft=4;spacingRight=4;overflow=hidden;rotatable=0;points=[[0,0.5],[1,0.5]];portConstraint=eastwest;" parent="e3YcuIBK5Q66y4Pe-Yqy-55" vertex="1">
                    <mxGeometry y="450" width="310" height="26" as="geometry"/>
                </mxCell>
                <mxCell id="e3YcuIBK5Q66y4Pe-Yqy-62" value="+ declaration(): void" style="text;strokeColor=none;fillColor=none;align=left;verticalAlign=top;spacingLeft=4;spacingRight=4;overflow=hidden;rotatable=0;points=[[0,0.5],[1,0.5]];portConstraint=eastwest;" parent="e3YcuIBK5Q66y4Pe-Yqy-55" vertex="1">
                    <mxGeometry y="476" width="310" height="26" as="geometry"/>
                </mxCell>
                <mxCell id="e3YcuIBK5Q66y4Pe-Yqy-63" value="+ definition(): void" style="text;strokeColor=none;fillColor=none;align=left;verticalAlign=top;spacingLeft=4;spacingRight=4;overflow=hidden;rotatable=0;points=[[0,0.5],[1,0.5]];portConstraint=eastwest;" parent="e3YcuIBK5Q66y4Pe-Yqy-55" vertex="1">
                    <mxGeometry y="502" width="310" height="26" as="geometry"/>
                </mxCell>
                <mxCell id="e3YcuIBK5Q66y4Pe-Yqy-64" value="+ render_to_string(cpp): void" style="text;strokeColor=none;fillColor=none;align=left;verticalAlign=top;spacingLeft=4;spacingRight=4;overflow=hidden;rotatable=0;points=[[0,0.5],[1,0.5]];portConstraint=eastwest;" parent="e3YcuIBK5Q66y4Pe-Yqy-55" vertex="1">
                    <mxGeometry y="528" width="310" height="26" as="geometry"/>
                </mxCell>
                <mxCell id="e3YcuIBK5Q66y4Pe-Yqy-80" value="+ render_internal_string_declaration(cpp): void" style="text;strokeColor=none;fillColor=none;align=left;verticalAlign=top;spacingLeft=4;spacingRight=4;overflow=hidden;rotatable=0;points=[[0,0.5],[1,0.5]];portConstraint=eastwest;" parent="e3YcuIBK5Q66y4Pe-Yqy-55" vertex="1">
                    <mxGeometry y="554" width="310" height="26" as="geometry"/>
                </mxCell>
                <mxCell id="e3YcuIBK5Q66y4Pe-Yqy-81" value="+ render_enum_section(cpp): void" style="text;strokeColor=none;fillColor=none;align=left;verticalAlign=top;spacingLeft=4;spacingRight=4;overflow=hidden;rotatable=0;points=[[0,0.5],[1,0.5]];portConstraint=eastwest;" parent="e3YcuIBK5Q66y4Pe-Yqy-55" vertex="1">
                    <mxGeometry y="580" width="310" height="26" as="geometry"/>
                </mxCell>
                <mxCell id="e3YcuIBK5Q66y4Pe-Yqy-82" value="+ render_variables_declaration(cpp): void" style="text;strokeColor=none;fillColor=none;align=left;verticalAlign=top;spacingLeft=4;spacingRight=4;overflow=hidden;rotatable=0;points=[[0,0.5],[1,0.5]];portConstraint=eastwest;" parent="e3YcuIBK5Q66y4Pe-Yqy-55" vertex="1">
                    <mxGeometry y="606" width="310" height="26" as="geometry"/>
                </mxCell>
                <mxCell id="e3YcuIBK5Q66y4Pe-Yqy-83" value="+ render_array_declaration(cpp): void" style="text;strokeColor=none;fillColor=none;align=left;verticalAlign=top;spacingLeft=4;spacingRight=4;overflow=hidden;rotatable=0;points=[[0,0.5],[1,0.5]];portConstraint=eastwest;" parent="e3YcuIBK5Q66y4Pe-Yqy-55" vertex="1">
                    <mxGeometry y="632" width="310" height="26" as="geometry"/>
                </mxCell>
                <mxCell id="e3YcuIBK5Q66y4Pe-Yqy-84" value="+ render_methods_declaration(cpp): void" style="text;strokeColor=none;fillColor=none;align=left;verticalAlign=top;spacingLeft=4;spacingRight=4;overflow=hidden;rotatable=0;points=[[0,0.5],[1,0.5]];portConstraint=eastwest;" parent="e3YcuIBK5Q66y4Pe-Yqy-55" vertex="1">
                    <mxGeometry y="658" width="310" height="26" as="geometry"/>
                </mxCell>
                <mxCell id="e3YcuIBK5Q66y4Pe-Yqy-85" value="+ render_static_members_implementation(cpp): void" style="text;strokeColor=none;fillColor=none;align=left;verticalAlign=top;spacingLeft=4;spacingRight=4;overflow=hidden;rotatable=0;points=[[0,0.5],[1,0.5]];portConstraint=eastwest;" parent="e3YcuIBK5Q66y4Pe-Yqy-55" vertex="1">
                    <mxGeometry y="684" width="310" height="26" as="geometry"/>
                </mxCell>
                <mxCell id="e3YcuIBK5Q66y4Pe-Yqy-86" value="+ render_methods_implementation(cpp): void" style="text;strokeColor=none;fillColor=none;align=left;verticalAlign=top;spacingLeft=4;spacingRight=4;overflow=hidden;rotatable=0;points=[[0,0.5],[1,0.5]];portConstraint=eastwest;" parent="e3YcuIBK5Q66y4Pe-Yqy-55" vertex="1">
                    <mxGeometry y="710" width="310" height="26" as="geometry"/>
                </mxCell>
                <mxCell id="e3YcuIBK5Q66y4Pe-Yqy-87" value="+ class_interface(cpp): void" style="text;strokeColor=none;fillColor=none;align=left;verticalAlign=top;spacingLeft=4;spacingRight=4;overflow=hidden;rotatable=0;points=[[0,0.5],[1,0.5]];portConstraint=eastwest;" parent="e3YcuIBK5Q66y4Pe-Yqy-55" vertex="1">
                    <mxGeometry y="736" width="310" height="26" as="geometry"/>
                </mxCell>
                <mxCell id="e3YcuIBK5Q66y4Pe-Yqy-88" value="+ private_class_members(cpp): void" style="text;strokeColor=none;fillColor=none;align=left;verticalAlign=top;spacingLeft=4;spacingRight=4;overflow=hidden;rotatable=0;points=[[0,0.5],[1,0.5]];portConstraint=eastwest;" parent="e3YcuIBK5Q66y4Pe-Yqy-55" vertex="1">
                    <mxGeometry y="762" width="310" height="26" as="geometry"/>
                </mxCell>
                <mxCell id="e3YcuIBK5Q66y4Pe-Yqy-89" value="+ render_to_string(cpp): void" style="text;strokeColor=none;fillColor=none;align=left;verticalAlign=top;spacingLeft=4;spacingRight=4;overflow=hidden;rotatable=0;points=[[0,0.5],[1,0.5]];portConstraint=eastwest;" parent="e3YcuIBK5Q66y4Pe-Yqy-55" vertex="1">
                    <mxGeometry y="788" width="310" height="26" as="geometry"/>
                </mxCell>
                <mxCell id="e3YcuIBK5Q66y4Pe-Yqy-65" value="+ render_to_string_declaration(cpp): void" style="text;strokeColor=none;fillColor=none;align=left;verticalAlign=top;spacingLeft=4;spacingRight=4;overflow=hidden;rotatable=0;points=[[0,0.5],[1,0.5]];portConstraint=eastwest;" parent="e3YcuIBK5Q66y4Pe-Yqy-55" vertex="1">
                    <mxGeometry y="814" width="310" height="26" as="geometry"/>
                </mxCell>
                <mxCell id="e3YcuIBK5Q66y4Pe-Yqy-66" value="+ render_to_string_implementation(cpp): void" style="text;strokeColor=none;fillColor=none;align=left;verticalAlign=top;spacingLeft=4;spacingRight=4;overflow=hidden;rotatable=0;points=[[0,0.5],[1,0.5]];portConstraint=eastwest;" parent="e3YcuIBK5Q66y4Pe-Yqy-55" vertex="1">
                    <mxGeometry y="840" width="310" height="26" as="geometry"/>
                </mxCell>
                <mxCell id="e3YcuIBK5Q66y4Pe-Yqy-90" value="CppTemplateClass" style="swimlane;fontStyle=1;align=center;verticalAlign=top;childLayout=stackLayout;horizontal=1;startSize=26;horizontalStack=0;resizeParent=1;resizeParentMax=0;resizeLast=0;collapsible=1;marginBottom=0;" parent="e3YcuIBK5Q66y4Pe-Yqy-1" vertex="1">
                    <mxGeometry x="-120" y="560" width="310" height="110" as="geometry"/>
                </mxCell>
                <mxCell id="e3YcuIBK5Q66y4Pe-Yqy-91" value="+ template_params_elements: []&#10;" style="text;strokeColor=none;fillColor=none;align=left;verticalAlign=top;spacingLeft=4;spacingRight=4;overflow=hidden;rotatable=0;points=[[0,0.5],[1,0.5]];portConstraint=eastwest;" parent="e3YcuIBK5Q66y4Pe-Yqy-90" vertex="1">
                    <mxGeometry y="26" width="310" height="24" as="geometry"/>
                </mxCell>
                <mxCell id="e3YcuIBK5Q66y4Pe-Yqy-92" value="" style="line;strokeWidth=1;fillColor=none;align=left;verticalAlign=middle;spacingTop=-1;spacingLeft=3;spacingRight=3;rotatable=0;labelPosition=right;points=[];portConstraint=eastwest;" parent="e3YcuIBK5Q66y4Pe-Yqy-90" vertex="1">
                    <mxGeometry y="50" width="310" height="8" as="geometry"/>
                </mxCell>
                <mxCell id="e3YcuIBK5Q66y4Pe-Yqy-93" value="+ add_template_params(template_param): void" style="text;strokeColor=none;fillColor=none;align=left;verticalAlign=top;spacingLeft=4;spacingRight=4;overflow=hidden;rotatable=0;points=[[0,0.5],[1,0.5]];portConstraint=eastwest;" parent="e3YcuIBK5Q66y4Pe-Yqy-90" vertex="1">
                    <mxGeometry y="58" width="310" height="26" as="geometry"/>
                </mxCell>
                <mxCell id="e3YcuIBK5Q66y4Pe-Yqy-94" value="+ render_to_string_declaration(cpp): void" style="text;strokeColor=none;fillColor=none;align=left;verticalAlign=top;spacingLeft=4;spacingRight=4;overflow=hidden;rotatable=0;points=[[0,0.5],[1,0.5]];portConstraint=eastwest;" parent="e3YcuIBK5Q66y4Pe-Yqy-90" vertex="1">
                    <mxGeometry y="84" width="310" height="26" as="geometry"/>
                </mxCell>
                <mxCell id="e3YcuIBK5Q66y4Pe-Yqy-96" value="CppTemplateFunction" style="swimlane;fontStyle=1;align=center;verticalAlign=top;childLayout=stackLayout;horizontal=1;startSize=26;horizontalStack=0;resizeParent=1;resizeParentMax=0;resizeLast=0;collapsible=1;marginBottom=0;" parent="e3YcuIBK5Q66y4Pe-Yqy-1" vertex="1">
                    <mxGeometry x="270" y="560" width="310" height="110" as="geometry"/>
                </mxCell>
                <mxCell id="e3YcuIBK5Q66y4Pe-Yqy-97" value="+ template_params_elements: []&#10;" style="text;strokeColor=none;fillColor=none;align=left;verticalAlign=top;spacingLeft=4;spacingRight=4;overflow=hidden;rotatable=0;points=[[0,0.5],[1,0.5]];portConstraint=eastwest;" parent="e3YcuIBK5Q66y4Pe-Yqy-96" vertex="1">
                    <mxGeometry y="26" width="310" height="24" as="geometry"/>
                </mxCell>
                <mxCell id="e3YcuIBK5Q66y4Pe-Yqy-98" value="" style="line;strokeWidth=1;fillColor=none;align=left;verticalAlign=middle;spacingTop=-1;spacingLeft=3;spacingRight=3;rotatable=0;labelPosition=right;points=[];portConstraint=eastwest;" parent="e3YcuIBK5Q66y4Pe-Yqy-96" vertex="1">
                    <mxGeometry y="50" width="310" height="8" as="geometry"/>
                </mxCell>
                <mxCell id="e3YcuIBK5Q66y4Pe-Yqy-99" value="+ add_template_params(template_param): void" style="text;strokeColor=none;fillColor=none;align=left;verticalAlign=top;spacingLeft=4;spacingRight=4;overflow=hidden;rotatable=0;points=[[0,0.5],[1,0.5]];portConstraint=eastwest;" parent="e3YcuIBK5Q66y4Pe-Yqy-96" vertex="1">
                    <mxGeometry y="58" width="310" height="26" as="geometry"/>
                </mxCell>
                <mxCell id="e3YcuIBK5Q66y4Pe-Yqy-100" value="+ render_to_string_declaration(cpp): void" style="text;strokeColor=none;fillColor=none;align=left;verticalAlign=top;spacingLeft=4;spacingRight=4;overflow=hidden;rotatable=0;points=[[0,0.5],[1,0.5]];portConstraint=eastwest;" parent="e3YcuIBK5Q66y4Pe-Yqy-96" vertex="1">
                    <mxGeometry y="84" width="310" height="26" as="geometry"/>
                </mxCell>
                <mxCell id="e3YcuIBK5Q66y4Pe-Yqy-101" value="CppInclude" style="swimlane;fontStyle=1;align=center;verticalAlign=top;childLayout=stackLayout;horizontal=1;startSize=26;horizontalStack=0;resizeParent=1;resizeParentMax=0;resizeLast=0;collapsible=1;marginBottom=0;" parent="e3YcuIBK5Q66y4Pe-Yqy-1" vertex="1">
                    <mxGeometry x="-370" y="310" width="310" height="110" as="geometry"/>
                </mxCell>
                <mxCell id="e3YcuIBK5Q66y4Pe-Yqy-102" value="+ includes_list: []&#10;" style="text;strokeColor=none;fillColor=none;align=left;verticalAlign=top;spacingLeft=4;spacingRight=4;overflow=hidden;rotatable=0;points=[[0,0.5],[1,0.5]];portConstraint=eastwest;" parent="e3YcuIBK5Q66y4Pe-Yqy-101" vertex="1">
                    <mxGeometry y="26" width="310" height="24" as="geometry"/>
                </mxCell>
                <mxCell id="e3YcuIBK5Q66y4Pe-Yqy-103" value="" style="line;strokeWidth=1;fillColor=none;align=left;verticalAlign=middle;spacingTop=-1;spacingLeft=3;spacingRight=3;rotatable=0;labelPosition=right;points=[];portConstraint=eastwest;" parent="e3YcuIBK5Q66y4Pe-Yqy-101" vertex="1">
                    <mxGeometry y="50" width="310" height="8" as="geometry"/>
                </mxCell>
                <mxCell id="e3YcuIBK5Q66y4Pe-Yqy-104" value="+ add_includes(include_file_name): void" style="text;strokeColor=none;fillColor=none;align=left;verticalAlign=top;spacingLeft=4;spacingRight=4;overflow=hidden;rotatable=0;points=[[0,0.5],[1,0.5]];portConstraint=eastwest;" parent="e3YcuIBK5Q66y4Pe-Yqy-101" vertex="1">
                    <mxGeometry y="58" width="310" height="26" as="geometry"/>
                </mxCell>
                <mxCell id="e3YcuIBK5Q66y4Pe-Yqy-105" value="+ render_to_string_declaration(cpp): void" style="text;strokeColor=none;fillColor=none;align=left;verticalAlign=top;spacingLeft=4;spacingRight=4;overflow=hidden;rotatable=0;points=[[0,0.5],[1,0.5]];portConstraint=eastwest;" parent="e3YcuIBK5Q66y4Pe-Yqy-101" vertex="1">
                    <mxGeometry y="84" width="310" height="26" as="geometry"/>
                </mxCell>
                <mxCell id="e3YcuIBK5Q66y4Pe-Yqy-106" value="Extends" style="endArrow=block;endSize=16;endFill=0;html=1;exitX=0.5;exitY=0;exitDx=0;exitDy=0;entryX=0.501;entryY=1.103;entryDx=0;entryDy=0;entryPerimeter=0;" parent="e3YcuIBK5Q66y4Pe-Yqy-1" source="e3YcuIBK5Q66y4Pe-Yqy-2" target="e3YcuIBK5Q66y4Pe-Yqy-66" edge="1">
                    <mxGeometry width="160" relative="1" as="geometry">
                        <mxPoint x="400" y="130" as="sourcePoint"/>
                        <mxPoint x="560" y="130" as="targetPoint"/>
                    </mxGeometry>
                </mxCell>
                <mxCell id="e3YcuIBK5Q66y4Pe-Yqy-107" value="Extends" style="endArrow=block;endSize=16;endFill=0;html=1;exitX=1;exitY=0.5;exitDx=0;exitDy=0;entryX=0;entryY=0.5;entryDx=0;entryDy=0;" parent="e3YcuIBK5Q66y4Pe-Yqy-1" source="e3YcuIBK5Q66y4Pe-Yqy-5" target="e3YcuIBK5Q66y4Pe-Yqy-48" edge="1">
                    <mxGeometry width="160" relative="1" as="geometry">
                        <mxPoint x="400" y="130" as="sourcePoint"/>
                        <mxPoint x="560" y="130" as="targetPoint"/>
                    </mxGeometry>
                </mxCell>
                <mxCell id="e3YcuIBK5Q66y4Pe-Yqy-108" value="Extends" style="endArrow=block;endSize=16;endFill=0;html=1;exitX=1;exitY=0.5;exitDx=0;exitDy=0;entryX=0;entryY=0.5;entryDx=0;entryDy=0;" parent="e3YcuIBK5Q66y4Pe-Yqy-1" source="e3YcuIBK5Q66y4Pe-Yqy-5" target="e3YcuIBK5Q66y4Pe-Yqy-13" edge="1">
                    <mxGeometry width="160" relative="1" as="geometry">
                        <mxPoint x="400" y="130" as="sourcePoint"/>
                        <mxPoint x="560" y="130" as="targetPoint"/>
                    </mxGeometry>
                </mxCell>
                <mxCell id="e3YcuIBK5Q66y4Pe-Yqy-109" value="Extends" style="endArrow=block;endSize=16;endFill=0;html=1;exitX=1;exitY=0.5;exitDx=0;exitDy=0;entryX=0;entryY=0.5;entryDx=0;entryDy=0;" parent="e3YcuIBK5Q66y4Pe-Yqy-1" source="e3YcuIBK5Q66y4Pe-Yqy-5" target="e3YcuIBK5Q66y4Pe-Yqy-26" edge="1">
                    <mxGeometry width="160" relative="1" as="geometry">
                        <mxPoint x="400" y="130" as="sourcePoint"/>
                        <mxPoint x="560" y="130" as="targetPoint"/>
                    </mxGeometry>
                </mxCell>
                <mxCell id="e3YcuIBK5Q66y4Pe-Yqy-110" value="Extends" style="endArrow=block;endSize=16;endFill=0;html=1;entryX=0;entryY=0.5;entryDx=0;entryDy=0;" parent="e3YcuIBK5Q66y4Pe-Yqy-1" target="e3YcuIBK5Q66y4Pe-Yqy-37" edge="1">
                    <mxGeometry width="160" relative="1" as="geometry">
                        <mxPoint x="590" y="340" as="sourcePoint"/>
                        <mxPoint x="560" y="620" as="targetPoint"/>
                    </mxGeometry>
                </mxCell>
                <mxCell id="e3YcuIBK5Q66y4Pe-Yqy-111" value="Extends" style="endArrow=block;endSize=16;endFill=0;html=1;exitX=0.485;exitY=1.115;exitDx=0;exitDy=0;exitPerimeter=0;" parent="e3YcuIBK5Q66y4Pe-Yqy-1" source="e3YcuIBK5Q66y4Pe-Yqy-8" edge="1">
                    <mxGeometry width="160" relative="1" as="geometry">
                        <mxPoint x="400" y="620" as="sourcePoint"/>
                        <mxPoint x="430" y="570" as="targetPoint"/>
                    </mxGeometry>
                </mxCell>
                <mxCell id="e3YcuIBK5Q66y4Pe-Yqy-112" value="Extends" style="endArrow=block;endSize=16;endFill=0;html=1;exitX=0.481;exitY=1.051;exitDx=0;exitDy=0;exitPerimeter=0;entryX=0.5;entryY=0;entryDx=0;entryDy=0;" parent="e3YcuIBK5Q66y4Pe-Yqy-1" source="e3YcuIBK5Q66y4Pe-Yqy-8" target="e3YcuIBK5Q66y4Pe-Yqy-90" edge="1">
                    <mxGeometry width="160" relative="1" as="geometry">
                        <mxPoint x="400" y="620" as="sourcePoint"/>
                        <mxPoint x="560" y="620" as="targetPoint"/>
                    </mxGeometry>
                </mxCell>
                <mxCell id="e3YcuIBK5Q66y4Pe-Yqy-113" value="Extends" style="endArrow=block;endSize=16;endFill=0;html=1;entryX=1.017;entryY=0.09;entryDx=0;entryDy=0;entryPerimeter=0;exitX=0;exitY=0.5;exitDx=0;exitDy=0;" parent="e3YcuIBK5Q66y4Pe-Yqy-1" source="e3YcuIBK5Q66y4Pe-Yqy-6" target="e3YcuIBK5Q66y4Pe-Yqy-104" edge="1">
                    <mxGeometry width="160" relative="1" as="geometry">
                        <mxPoint x="-20" y="120" as="sourcePoint"/>
                        <mxPoint x="60" y="340" as="targetPoint"/>
                    </mxGeometry>
                </mxCell>
            </root>
        </mxGraphModel>
    </diagram>
</mxfile>